<svg width="42" height="40" xmlns="http://www.w3.org/2000/svg" xmlns:xlink="http://www.w3.org/1999/xlink" overflow="hidden"><defs><clipPath id="clip0"><rect x="67" y="1973" width="42" height="40"/></clipPath></defs><g clip-path="url(#clip0)" transform="translate(-67 -1973)"><path d="M81.6089 1999.5 81.497 1999.24 81.6485 1997.76 81.6485 1997.76C82.9323 1997.66 83.8135 1997.5 84.2922 1997.3L84.2922 1997.3 84.2922 1997.3C84.7693 1997.1 85.0079 1996.77 85.0079 1996.32L85.0079 1996.32 85.0079 1996.32C85.0079 1995.81 84.8952 1995.2 84.6698 1994.5L84.6698 1994.5 83.4226 1990.36 83.4226 1990.36C82.818 1990.34 81.5087 1990.32 79.4945 1990.32L79.4945 1990.32 79.4945 1990.32C78.2869 1990.32 76.9146 1990.42 75.3775 1990.63L75.3775 1990.63 73.9811 1994.57 73.9811 1994.57C73.7542 1995.25 73.6407 1995.75 73.6407 1996.05L73.6407 1996.05 73.6407 1996.05C73.6407 1996.61 73.8171 1997.01 74.1699 1997.25L74.1699 1997.25 74.1699 1997.25C74.5227 1997.49 75.1017 1997.61 75.9067 1997.61L75.9067 1997.61 78.0608 1997.61 78.1354 1997.76 77.9092 1999.39 77.9092 1999.39C77.6062 1999.36 76.9138 1999.31 75.8321 1999.24L75.8321 1999.24 75.8321 1999.24C74.7488 1999.16 73.6912 1999.12 72.6593 1999.12L72.6593 1999.12 72.6593 1999.12C71.7283 1999.12 70.8658 1999.14 70.0716 1999.16L70.0716 1999.16 70.0716 1999.16C69.279 1999.19 68.7568 1999.21 68.505 1999.24L68.505 1999.24 68.8081 1997.45 68.8081 1997.45C69.5121 1997.38 70.0786 1997.13 70.5076 1996.71L70.5076 1996.71 70.5076 1996.71C70.9349 1996.3 71.3499 1995.57 71.7524 1994.53L71.7524 1994.53 79.1168 1975.15 81.497 1974.5 81.7977 1974.5 81.7977 1974.5C81.95 1975.11 82.3347 1976.51 82.9517 1978.71L82.9517 1978.71 82.9517 1978.71C83.5672 1980.91 84.3217 1983.52 85.2153 1986.53L85.2153 1986.53 85.2153 1986.53C86.1105 1989.54 86.9731 1992.31 87.803 1994.84L87.803 1994.84 87.803 1994.84C88.1061 1995.77 88.5094 1996.43 89.0129 1996.81L89.0129 1996.81 89.0129 1996.81C89.5165 1997.19 90.3215 1997.43 91.4281 1997.53L91.4281 1997.53 91.505 1997.68 91.2392 1999.24 91.2392 1999.24C90.9378 1999.24 90.3907 1999.22 89.5981 1999.18L89.5981 1999.18 89.5981 1999.18C88.8039 1999.14 88.0167 1999.12 87.2365 1999.12L87.2365 1999.12 87.2365 1999.12C86.0289 1999.12 84.8649 1999.17 83.7443 1999.28L83.7443 1999.28 83.7443 1999.28C82.6238 1999.38 81.912 1999.45 81.6089 1999.5L81.6089 1999.5ZM76.0582 1988.77 79.3826 1988.77 79.3826 1988.77C80.2887 1988.77 81.4589 1988.7 82.8934 1988.58L82.8934 1988.58 79.9094 1978.64 79.646 1978.64 76.0582 1988.77Z" stroke="#000000" stroke-width="0.333333" stroke-miterlimit="8" fill-rule="evenodd"/><path d="M91.5052 2012.5 91.7355 2010.76 91.7355 2010.76C92.9147 2010.54 93.7093 2010.2 94.1193 2009.76L94.1193 2009.76 94.1193 2009.76C94.5293 2009.32 94.7342 2008.57 94.7342 2007.51L94.7342 2007.51 94.7746 1991.63 94.7746 1991.63C94.7746 1990.82 94.678 1990.28 94.4849 1990L94.4849 1990 94.4849 1990C94.2934 1989.72 93.9151 1989.58 93.35 1989.58L93.35 1989.58 93.35 1989.58C93.0936 1989.58 92.8371 1989.6 92.5807 1989.62L92.5807 1989.62 92.5807 1989.62C92.3243 1989.65 92.1446 1989.66 92.0417 1989.66L92.0417 1989.66 91.9658 1989.51 92.2341 1987.84 92.2341 1987.84C92.5681 1987.87 93.2416 1987.89 94.2546 1987.92L94.2546 1987.92 94.2546 1987.92C95.2676 1987.95 96.3764 1987.96 97.581 1987.96L97.581 1987.96 97.581 1987.96C102.634 1987.96 106.236 1987.81 108.389 1987.5L108.389 1987.5 108.505 1987.73 108.505 1987.73C108.48 1987.88 108.409 1988.24 108.294 1988.79L108.294 1988.79 108.294 1988.79C108.178 1989.34 108.056 1990.11 107.928 1991.1L107.928 1991.1 107.928 1991.1C107.8 1992.08 107.697 1993.09 107.62 1994.12L107.62 1994.12 105.775 1994.27 105.775 1994.27C105.775 1994.15 105.787 1993.91 105.813 1993.55L105.813 1993.55 105.813 1993.55C105.838 1993.2 105.851 1992.86 105.851 1992.53L105.851 1992.53 105.851 1992.53C105.851 1991.65 105.742 1991.04 105.525 1990.7L105.525 1990.7 105.525 1990.7C105.307 1990.36 104.865 1990.13 104.198 1990.02L104.198 1990.02 104.198 1990.02C103.53 1989.91 102.363 1989.85 100.696 1989.85L100.696 1989.85 100.696 1989.85C99.7986 1989.85 99.1837 1989.87 98.8513 1989.92L98.8513 1989.92 98.8513 1989.92C98.5173 1989.97 98.2988 1990.09 98.196 1990.28L98.196 1990.28 98.196 1990.28C98.0946 1990.47 98.0305 1990.82 98.0036 1991.32L98.0036 1991.32 97.6973 1999.31 101.658 1999.34 101.658 1999.34C102.145 1999.34 102.864 1999.29 103.814 1999.17L103.814 1999.17 103.814 1999.17C104.762 1999.06 105.389 1998.98 105.696 1998.93L105.696 1998.93 105.851 1999.12 105.312 2001.39 105.312 2001.39C104.979 2001.36 104.358 2001.33 103.448 2001.31L103.448 2001.31 103.448 2001.31C102.538 2001.28 101.582 2001.27 100.582 2001.27L100.582 2001.27 100.582 2001.27C99.6324 2001.27 98.6447 2001.36 97.619 2001.53L97.619 2001.53 97.467 2007.82 97.467 2007.82C97.467 2008.85 97.5818 2009.54 97.8113 2009.88L97.8113 2009.88 97.8113 2009.88C98.0424 2010.22 98.4911 2010.39 99.1575 2010.39L99.1575 2010.39 99.1575 2010.39C99.6704 2010.39 100.203 2010.37 100.755 2010.33L100.755 2010.33 100.755 2010.33C101.306 2010.29 101.685 2010.27 101.89 2010.27L101.89 2010.27 101.966 2010.42 101.62 2012.2 101.62 2012.2C101.21 2012.18 100.447 2012.15 99.3309 2012.11L99.3309 2012.11 99.3309 2012.11C98.2165 2012.07 97.0689 2012.05 95.8881 2012.05L95.8881 2012.05 95.8881 2012.05C95.0935 2012.05 94.2348 2012.11 93.312 2012.24L93.312 2012.24 93.312 2012.24C92.3892 2012.37 91.7869 2012.45 91.5052 2012.5L91.5052 2012.5Z" stroke="#000000" stroke-width="0.333333" stroke-miterlimit="8" fill-rule="evenodd"/></g></svg>