<svg width="16" height="16" xmlns="http://www.w3.org/2000/svg" xmlns:xlink="http://www.w3.org/1999/xlink" overflow="hidden"><defs><clipPath id="clip0"><rect x="333" y="2239" width="16" height="16"/></clipPath></defs><g clip-path="url(#clip0)" transform="translate(-333 -2239)"><path d="M1.50004 0C0.671585 0 0 0.67157 0 1.5 0 2.32843 0.671585 3 1.50004 3 2.32849 3 3.00008 2.32843 3.00008 1.5 2.99916 0.671951 2.32811 0.000914634 1.50004 0ZM1.50004 2.625C0.878679 2.625 0.374971 2.12134 0.374971 1.5 0.374971 0.878659 0.878679 0.375 1.50004 0.375 2.1214 0.375 2.62503 0.878659 2.62503 1.5 2.62442 2.12104 2.12109 2.62439 1.50004 2.625Z" stroke="#002060" stroke-width="0.333333" stroke-miterlimit="8" fill-rule="evenodd" transform="matrix(-1 0 0 1 342.5 2245.5)"/><path d="M15.0001 7.31711 13.715 7.31711C13.6145 4.02824 10.9718 1.38555 7.68295 1.28509L7.68295 0 7.31713 0 7.31713 1.28509C4.02819 1.38555 1.38556 4.02824 1.28503 7.31711L0 7.31711 0 7.68296 1.28503 7.68296C1.38556 10.9718 4.02819 13.6145 7.31713 13.715L7.31713 15.0001 7.68295 15.0001 7.68295 13.715C10.9718 13.6145 13.6145 10.9718 13.715 7.68296L15.0001 7.68296ZM13.3492 7.31711 11.8857 7.31711C11.788 5.03768 9.96236 3.21213 7.68295 3.11435L7.68295 1.65094C10.77 1.75088 13.2492 4.23012 13.3492 7.31711ZM11.5198 7.68296C11.4229 9.76051 9.76054 11.4229 7.68295 11.5199L7.68295 9.69515 7.31713 9.69515 7.31713 11.5199C5.23953 11.4229 3.5772 9.76051 3.48017 7.68296L5.30486 7.68296 5.30486 7.31711 3.48017 7.31711C3.5772 5.23956 5.23953 3.57717 7.31713 3.4802L7.31713 5.30493 7.68295 5.30493 7.68295 3.4802C9.76054 3.57717 11.4229 5.23956 11.5198 7.31711L9.69514 7.31711 9.69514 7.68296ZM7.31713 1.65094 7.31713 3.11435C5.03771 3.21213 3.21212 5.03768 3.11435 7.31711L1.65092 7.31711C1.75086 4.23012 4.23008 1.75088 7.31713 1.65094ZM1.65092 7.68296 3.11435 7.68296C3.21212 9.96232 5.03771 11.7879 7.31713 11.8857L7.31713 13.3491C4.23008 13.2492 1.75086 10.7699 1.65092 7.68296ZM7.68295 13.3491 7.68295 11.8857C9.96236 11.7879 11.788 9.96232 11.8857 7.68296L13.3492 7.68296C13.2492 10.7699 10.77 13.2492 7.68295 13.3491Z" stroke="#002060" stroke-width="0.333333" stroke-miterlimit="8" fill-rule="evenodd" transform="matrix(-1 0 0 1 348.5 2239.5)"/></g></svg>