<svg width="0" height="0" class="hidden">
  <symbol xmlns="http://www.w3.org/2000/svg" overflow="hidden" viewBox="0 0 42 40" id="af-icon">
    <defs>
      <clipPath id="a">
        <path d="M67 1973h42v40H67z"></path>
      </clipPath>
    </defs>
    <g clip-path="url(#a)" transform="translate(-67 -1973)" stroke="#000" stroke-width=".333" stroke-miterlimit="8" fill-rule="evenodd">
      <path d="M81.609 1999.5l-.112-.26.151-1.48h0c1.284-.1 2.166-.26 2.644-.46h0c.477-.2.716-.53.716-.98h0c0-.51-.113-1.12-.338-1.82h0l-1.247-4.14h0c-.605-.02-1.914-.04-3.928-.04h0c-1.208 0-2.58.1-4.118.31h0l-1.396 3.94h0c-.227.68-.34 1.18-.34 1.48h0c0 .56.176.96.529 1.2h0c.353.24.932.36 1.737.36h2.154l.074.15-.226 1.63h0c-.303-.03-.995-.08-2.077-.15h0c-1.083-.08-2.14-.12-3.173-.12h0c-.93 0-1.793.02-2.587.04h0c-.793.03-1.315.05-1.567.08h0l.303-1.79h0c.704-.07 1.27-.32 1.7-.74h0c.427-.41.842-1.14 1.244-2.18h0l7.365-19.38 2.38-.65h.3c.153.61.538 2.01 1.155 4.21h0c.615 2.2 1.37 4.81 2.263 7.82h0a312.52 312.52 0 002.588 8.31h0c.303.93.706 1.59 1.21 1.97h0c.503.38 1.308.62 2.415.72h0l.077.15-.266 1.56h0c-.301 0-.848-.02-1.64-.06h0a46.99 46.99 0 00-2.362-.06h0c-1.208 0-2.372.05-3.493.16h0c-1.12.1-1.832.17-2.135.22h0zm-5.55-10.73h3.324c.906 0 2.076-.07 3.51-.19h0l-2.984-9.94h-.263l-3.588 10.13zm15.446 23.73l.23-1.74h0c1.18-.22 1.974-.56 2.384-1h0c.41-.44.615-1.19.615-2.25h0l.04-15.88h0c0-.81-.096-1.35-.29-1.63h0c-.19-.28-.569-.42-1.134-.42h0c-.256 0-.513.02-.77.04h0c-.256.03-.435.04-.538.04h0l-.076-.15.268-1.67h0c.334.03 1.008.05 2.02.08h0c1.014.03 2.122.04 3.327.04h0c5.053 0 8.655-.15 10.808-.46h0l.116.23h0c-.025.15-.096.51-.211 1.06h0c-.116.55-.238 1.32-.366 2.31h0c-.128.98-.231 1.99-.308 3.02h0l-1.845.15h0c0-.12.012-.36.038-.72h0c.025-.35.038-.69.038-1.02h0c0-.88-.109-1.49-.326-1.83h0c-.218-.34-.66-.57-1.327-.68h0c-.668-.11-1.835-.17-3.502-.17h0c-.897 0-1.512.02-1.845.07h0c-.334.05-.552.17-.655.36h0c-.101.19-.165.54-.192 1.04h0l-.307 7.99 3.961.03h0c.487 0 1.206-.05 2.156-.17h0c.948-.11 1.575-.19 1.882-.24h0l.155.19-.539 2.27h0c-.333-.03-.954-.06-1.864-.08h0c-.91-.03-1.866-.04-2.866-.04h0c-.95 0-1.937.09-2.963.26h0l-.152 6.29h0c0 1.03.115 1.72.344 2.06h0c.231.34.68.51 1.346.51h0c.513 0 1.046-.02 1.598-.06h0c.551-.04.93-.06 1.135-.06h0l.076.15-.346 1.78h0c-.41-.02-1.173-.05-2.29-.09h0a96.029 96.029 0 00-3.442-.06h0c-.794 0-1.653.06-2.576.19h0c-.923.13-1.525.21-1.807.26h0z"></path>
    </g>
  </symbol>
  <symbol xmlns="http://www.w3.org/2000/svg" overflow="hidden" viewBox="0 0 448 512" id="linkedin-icon">
    <path d="M416 32H31.9C14.3 32 0 46.5 0 64.3v383.4C0 465.5 14.3 480 31.9 480H416c17.6 0 32-14.5 32-32.3V64.3c0-17.8-14.4-32.3-32-32.3zM135.4 416H69V202.2h66.5V416zm-33.2-243c-21.3 0-38.5-17.3-38.5-38.5S80.9 96 102.2 96c21.2 0 38.5 17.3 38.5 38.5 0 21.3-17.2 38.5-38.5 38.5zm282.1 243h-66.4V312c0-24.8-.5-56.7-34.5-56.7-34.6 0-39.9 27-39.9 54.9V416h-66.4V202.2h63.7v29.2h.9c8.9-16.8 30.6-34.5 62.9-34.5 67.2 0 79.7 44.3 79.7 101.9V416z" stroke-width="4" ></path>
  </symbol>
  <symbol xmlns="http://www.w3.org/2000/svg" overflow="hidden" viewBox="0 0 496 512" id="github-icon">
    <path d="M165.9 397.4c0 2-2.3 3.6-5.2 3.6-3.3.3-5.6-1.3-5.6-3.6 0-2 2.3-3.6 5.2-3.6 3-.3 5.6 1.3 5.6 3.6zm-31.1-4.5c-.7 2 1.3 4.3 4.3 4.9 2.6 1 5.6 0 6.2-2 .6-2-1.3-4.3-4.3-5.2-2.6-.7-5.5.3-6.2 2.3zm44.2-1.7c-2.9.7-4.9 2.6-4.6 4.9.3 2 2.9 3.3 5.9 2.6 2.9-.7 4.9-2.6 4.6-4.6-.3-1.9-3-3.2-5.9-2.9zM244.8 8C106.1 8 0 113.3 0 252c0 110.9 69.8 205.8 169.5 239.2 12.8 2.3 17.3-5.6 17.3-12.1 0-6.2-.3-40.4-.3-61.4 0 0-70 15-84.7-29.8 0 0-11.4-29.1-27.8-36.6 0 0-22.9-15.7 1.6-15.4 0 0 24.9 2 38.6 25.8 21.9 38.6 58.6 27.5 72.9 20.9 2.3-16 8.8-27.1 16-33.7-55.9-6.2-112.3-14.3-112.3-110.5 0-27.5 7.6-41.3 23.6-58.9-2.6-6.5-11.1-33.3 2.6-67.9 20.9-6.5 69 27 69 27 20-5.6 41.5-8.5 62.8-8.5 21.3 0 42.8 2.9 62.8 8.5 0 0 48.1-33.6 69-27 13.7 34.7 5.2 61.4 2.6 67.9 16 17.7 25.8 31.5 25.8 58.9 0 96.5-58.9 104.2-114.8 110.5 9.2 7.9 17 22.9 17 46.4 0 33.7-.3 75.4-.3 83.6 0 6.5 4.6 14.4 17.3 12.1C428.2 457.8 496 362.9 496 252 496 113.3 383.5 8 244.8 8zM97.2 352.9c-1.3 1-1 3.3.7 5.2 1.6 1.6 3.9 2.3 5.2 1 1.3-1 1-3.3-.7-5.2-1.6-1.6-3.9-2.3-5.2-1zm-10.8-8.1c-.7 1.3.3 2.9 2.3 3.9 1.6 1 3.6.7 4.3-.7.7-1.3-.3-2.9-2.3-3.9-2-.6-3.6-.3-4.3.7zm32.4 35.6c-1.6 1.3-1 4.3 1.3 6.2 2.3 2.3 5.2 2.6 6.5 1 1.3-1.3.7-4.3-1.3-6.2-2.2-2.3-5.2-2.6-6.5-1zm-11.4-14.7c-1.6 1-1.6 3.6 0 5.9 1.6 2.3 4.3 3.3 5.6 2.3 1.6-1.3 1.6-3.9 0-6.2-1.4-2.3-4-3.3-5.6-2z" stroke="#000" stroke-width="4.468"></path>
  </symbol>
</svg>